<svg width="10" height="17" viewBox="0 0 10 17" fill="none" xmlns="http://www.w3.org/2000/svg">
<g clip-path="url(#clip0_56_123)">
<path d="M9.70817 15.3839C10.1042 15.7602 10.0953 16.3634 9.68724 16.73C9.28073 17.0966 8.62911 17.0883 8.23305 16.7106L0.29403 9.13061L1.03084 8.46793L0.291041 9.13199C-0.105013 8.75292 -0.0960455 8.14835 0.31346 7.78173C0.325417 7.77066 0.337373 7.76098 0.349329 7.7513L8.23455 0.288894C8.6306 -0.0887911 9.28073 -0.0970919 9.68874 0.269526C10.0953 0.636144 10.1042 1.23795 9.70817 1.61564L2.4656 8.4707L9.70817 15.3839Z" fill="#8C2518"/>
</g>
<defs>
<clipPath id="clip0_56_123">
<rect width="10" height="17" fill="white" transform="matrix(-1 0 0 1 10 0)"/>
</clipPath>
</defs>
</svg>
