<svg width="470" height="476" viewBox="0 0 470 476" fill="none" xmlns="http://www.w3.org/2000/svg">
<rect y="0.136719" width="470" height="475.716" fill="#D9D9D9"/>
<path d="M68.8564 216.91H87.9924V221.07C87.9924 227.428 86.7764 232.1 84.3444 235.086C86.6057 237.134 87.7364 240.014 87.7364 243.726L87.6724 245.07L86.7124 261.326H68.8564V216.91ZM75.2564 232.974C77.0057 232.974 78.4991 232.164 79.7364 230.542C80.9737 228.878 81.5924 226.574 81.5924 223.63V222.862H75.2564V232.974ZM80.7604 255.374L81.4004 245.07C81.5711 241.828 80.8031 239.63 79.0964 238.478C77.9444 238.777 76.6644 238.926 75.2564 238.926V255.374H80.7604ZM93.3564 216.91H99.7564V234.446L106.092 229.07V216.91H112.428V261.326H106.092V236.878L99.7564 242.254V261.326H93.3564V216.91ZM118.867 255.374L118.163 240.398C117.95 235.748 119.038 232.334 121.427 230.158C123.816 227.94 126.931 226.83 130.771 226.83L130.835 222.862H118.867V216.91H137.235V255.374H141.011L140.243 269.71H133.715L134.291 261.326H121.107L121.683 269.71H115.347L114.387 255.374H118.867ZM125.203 255.374H130.835V232.782C126.312 232.782 124.2 235.321 124.499 240.398L125.203 255.374ZM143.477 225.614C143.477 222.756 144.288 220.601 145.909 219.15C147.53 217.657 149.706 216.91 152.437 216.91H161.717V229.454H155.317V222.862H152.885C150.88 222.862 149.877 223.908 149.877 225.998V232.974H158.197V238.926H149.877V255.374H155.189V246.734H161.589V261.326H143.477V225.614ZM166.218 226.958C166.133 223.716 166.922 221.177 168.586 219.342C170.25 217.508 172.725 216.59 176.01 216.59C179.253 216.59 181.706 217.529 183.37 219.406C185.034 221.241 185.823 223.758 185.738 226.958L184.97 252.43C184.799 255.289 183.989 257.55 182.538 259.214C181.087 260.836 178.911 261.646 176.01 261.646C173.066 261.646 170.847 260.836 169.354 259.214C167.861 257.55 167.071 255.289 166.986 252.43L166.218 226.958ZM173.258 251.598C173.343 253.049 173.578 254.094 173.962 254.734C174.389 255.374 175.071 255.694 176.01 255.694C176.949 255.694 177.61 255.374 177.994 254.734C178.378 254.094 178.613 253.049 178.698 251.598L179.338 227.854C179.338 226.062 179.082 224.74 178.57 223.886C178.101 222.99 177.247 222.542 176.01 222.542C174.773 222.542 173.898 222.99 173.386 223.886C172.874 224.782 172.618 226.105 172.618 227.854L173.258 251.598ZM200.718 226.958C200.633 223.758 201.401 221.241 203.022 219.406C204.686 217.529 207.139 216.59 210.382 216.59C213.497 216.59 215.886 217.529 217.55 219.406C219.214 221.241 220.003 223.758 219.918 226.958L219.854 229.454H213.454V227.854C213.454 226.105 213.219 224.782 212.75 223.886C212.281 222.99 211.491 222.542 210.382 222.542C209.187 222.542 208.334 222.99 207.822 223.886C207.353 224.782 207.118 226.105 207.118 227.854L207.758 251.598C207.843 253.006 208.078 254.052 208.462 254.734C208.846 255.374 209.486 255.694 210.382 255.694C211.235 255.694 211.854 255.374 212.238 254.734C212.622 254.052 212.857 253.006 212.942 251.598L213.262 242.638H219.662L219.278 252.43C219.107 255.289 218.297 257.55 216.846 259.214C215.395 260.836 213.241 261.646 210.382 261.646C207.523 261.646 205.347 260.836 203.854 259.214C202.361 257.55 201.571 255.289 201.486 252.43L200.718 226.958ZM68.8564 293.91H75.2564V308.758C75.8964 308.801 76.8137 308.908 78.0084 309.078L80.5044 293.91H88.7604V299.862H85.5604L83.4484 311.318C86.5631 313.665 87.9711 317.334 87.6724 322.326L86.7124 338.326H80.3124L81.3364 322.326L81.4004 321.238C81.4004 319.105 80.8884 317.526 79.8644 316.502C78.8404 315.478 77.3044 314.902 75.2564 314.774V338.326H68.8564V293.91ZM92.4679 317.398C92.2546 312.748 93.3426 309.334 95.7319 307.158C98.1212 304.94 101.236 303.83 105.076 303.83L105.14 299.862H93.1719V293.91H111.54V338.326H105.14V309.782C100.617 309.782 98.5052 312.321 98.8039 317.398L99.8279 338.326H93.4279L92.4679 317.398ZM117.231 293.91H123.631V311.446L129.967 306.07V293.91H136.303V338.326H129.967V313.878L123.631 319.254V338.326H117.231V293.91ZM142.102 302.614C142.102 299.756 142.913 297.601 144.534 296.15C146.155 294.657 148.331 293.91 151.062 293.91H160.342V306.454H153.942V299.862H151.51C149.505 299.862 148.502 300.908 148.502 302.998V309.974H156.822V315.926H148.502V332.374H153.814V323.734H160.214V338.326H142.102V302.614ZM165.731 293.91H172.131V309.974H178.403V293.91H184.803V338.326H178.403V315.926H172.131V338.326H165.731V293.91ZM189.322 293.91H214.666V306.454H208.33V299.862H205.194V338.326H198.794V299.862H195.658V306.454H189.322V293.91ZM217.655 317.398C217.442 312.748 218.53 309.334 220.919 307.158C223.309 304.94 226.423 303.83 230.263 303.83L230.327 299.862H218.359V293.91H236.727V338.326H230.327V323.862H224.311L225.015 338.326H218.615L217.655 317.398ZM223.991 317.91H230.327V309.782C228.194 309.782 226.573 310.38 225.463 311.574C224.354 312.769 223.863 314.71 223.991 317.398V317.91ZM241.843 317.398C241.63 312.748 242.718 309.334 245.107 307.158C247.496 304.94 250.59 303.83 254.387 303.83L254.451 299.862H242.547V293.91H260.851V305.878C262.515 304.513 264.584 303.83 267.059 303.83L267.123 293.91H273.523V338.326H267.123V309.782C265.032 309.782 263.454 310.38 262.387 311.574C261.363 312.769 260.851 314.71 260.851 317.398V338.326H254.451V309.782C250.056 309.782 247.966 312.321 248.179 317.398L249.203 338.326H242.803L241.843 317.398ZM279.231 293.91H285.631V311.446L291.967 306.07V293.91H298.303V338.326H291.967V313.878L285.631 319.254V338.326H279.231V293.91Z" fill="black"/>
</svg>
