<svg width="188" height="52" viewBox="0 0 188 52" fill="none" xmlns="http://www.w3.org/2000/svg">
<path fill-rule="evenodd" clip-rule="evenodd" d="M0 10.7109C15.2304 10.7109 23.2696 10.7109 38.5 10.7109V29.6627V47.1688H19H0V29.6627V10.7109ZM4.43084 42.9783V15.9993H34.0159V42.9783H25V25.4495H14V42.9783H4.43084Z" fill="black"/>
<path d="M22.5 12.5V1H27.5V12.5H22.5Z" fill="black" stroke="black"/>
<path d="M42.8359 43V14.3672H53.6367C55.5378 14.3672 56.9896 14.4583 57.9922 14.6406C59.3984 14.875 60.5768 15.3242 61.5273 15.9883C62.4779 16.6393 63.2396 17.5573 63.8125 18.7422C64.3984 19.9271 64.6914 21.2292 64.6914 22.6484C64.6914 25.0833 63.9167 27.1471 62.3672 28.8398C60.8177 30.5195 58.0182 31.3594 53.9688 31.3594H46.625V43H42.8359ZM46.625 27.9805H54.0273C56.4753 27.9805 58.2135 27.5247 59.2422 26.6133C60.2708 25.7018 60.7852 24.4193 60.7852 22.7656C60.7852 21.5677 60.4792 20.5456 59.8672 19.6992C59.2682 18.8398 58.474 18.2734 57.4844 18C56.8464 17.8307 55.668 17.7461 53.9492 17.7461H46.625V27.9805ZM83.2656 36.3203L86.8984 36.7695C86.3255 38.8919 85.2643 40.5391 83.7148 41.7109C82.1654 42.8828 80.1862 43.4688 77.7773 43.4688C74.7435 43.4688 72.3346 42.5378 70.5508 40.6758C68.7799 38.8008 67.8945 36.1771 67.8945 32.8047C67.8945 29.3151 68.793 26.6068 70.5898 24.6797C72.3867 22.7526 74.7174 21.7891 77.582 21.7891C80.3555 21.7891 82.6211 22.7331 84.3789 24.6211C86.1367 26.5091 87.0156 29.1654 87.0156 32.5898C87.0156 32.7982 87.0091 33.1107 86.9961 33.5273H71.5273C71.6576 35.806 72.3021 37.5508 73.4609 38.7617C74.6198 39.9727 76.0651 40.5781 77.7969 40.5781C79.0859 40.5781 80.1862 40.2396 81.0977 39.5625C82.0091 38.8854 82.7318 37.8047 83.2656 36.3203ZM71.7227 30.6367H83.3047C83.1484 28.8919 82.7057 27.5833 81.9766 26.7109C80.8568 25.3568 79.4049 24.6797 77.6211 24.6797C76.0065 24.6797 74.6458 25.2201 73.5391 26.3008C72.4453 27.3815 71.8398 28.8268 71.7227 30.6367ZM104.867 35.4023L108.324 35.8516C107.947 38.2344 106.977 40.1029 105.414 41.457C103.865 42.7982 101.957 43.4688 99.6914 43.4688C96.8529 43.4688 94.5677 42.5443 92.8359 40.6953C91.1172 38.8333 90.2578 36.1706 90.2578 32.707C90.2578 30.4674 90.6289 28.5078 91.3711 26.8281C92.1133 25.1484 93.2396 23.8919 94.75 23.0586C96.2734 22.2122 97.9271 21.7891 99.7109 21.7891C101.964 21.7891 103.806 22.362 105.238 23.5078C106.671 24.6406 107.589 26.2552 107.992 28.3516L104.574 28.8789C104.249 27.4857 103.669 26.4375 102.836 25.7344C102.016 25.0312 101.02 24.6797 99.8477 24.6797C98.0768 24.6797 96.638 25.3177 95.5312 26.5938C94.4245 27.8568 93.8711 29.862 93.8711 32.6094C93.8711 35.3958 94.4049 37.4206 95.4727 38.6836C96.5404 39.9466 97.9336 40.5781 99.6523 40.5781C101.033 40.5781 102.185 40.1549 103.109 39.3086C104.034 38.4622 104.62 37.1602 104.867 35.4023ZM111.332 43V14.3672H114.848V24.6406C116.488 22.7396 118.559 21.7891 121.059 21.7891C122.595 21.7891 123.93 22.0951 125.062 22.707C126.195 23.306 127.003 24.1393 127.484 25.207C127.979 26.2747 128.227 27.8242 128.227 29.8555V43H124.711V29.8555C124.711 28.0977 124.327 26.8216 123.559 26.0273C122.803 25.2201 121.729 24.8164 120.336 24.8164C119.294 24.8164 118.311 25.0898 117.387 25.6367C116.475 26.1706 115.824 26.8997 115.434 27.8242C115.043 28.7487 114.848 30.0247 114.848 31.6523V43H111.332ZM133.617 43V14.3672H137.133V30.6953L145.453 22.2578H150.004L142.074 29.9531L150.805 43H146.469L139.613 32.3945L137.133 34.7773V43H133.617ZM167.133 40.4414C165.831 41.5482 164.574 42.3294 163.363 42.7852C162.165 43.2409 160.876 43.4688 159.496 43.4688C157.217 43.4688 155.466 42.9154 154.242 41.8086C153.018 40.6888 152.406 39.263 152.406 37.5312C152.406 36.5156 152.634 35.5911 153.09 34.7578C153.559 33.9115 154.164 33.2344 154.906 32.7266C155.661 32.2188 156.508 31.8346 157.445 31.5742C158.135 31.3919 159.177 31.2161 160.57 31.0469C163.409 30.7083 165.499 30.3047 166.84 29.8359C166.853 29.3542 166.859 29.0482 166.859 28.918C166.859 27.4857 166.527 26.4766 165.863 25.8906C164.965 25.0964 163.63 24.6992 161.859 24.6992C160.206 24.6992 158.982 24.9922 158.188 25.5781C157.406 26.151 156.827 27.1732 156.449 28.6445L153.012 28.1758C153.324 26.7044 153.839 25.5195 154.555 24.6211C155.271 23.7096 156.306 23.013 157.66 22.5312C159.014 22.0365 160.583 21.7891 162.367 21.7891C164.138 21.7891 165.577 21.9974 166.684 22.4141C167.79 22.8307 168.604 23.3581 169.125 23.9961C169.646 24.6211 170.01 25.4154 170.219 26.3789C170.336 26.9779 170.395 28.0586 170.395 29.6211V34.3086C170.395 37.5768 170.466 39.6471 170.609 40.5195C170.766 41.3789 171.065 42.2057 171.508 43H167.836C167.471 42.2708 167.237 41.418 167.133 40.4414ZM166.84 32.5898C165.564 33.1107 163.65 33.5534 161.098 33.918C159.652 34.1263 158.63 34.3607 158.031 34.6211C157.432 34.8815 156.97 35.2656 156.645 35.7734C156.319 36.2682 156.156 36.8216 156.156 37.4336C156.156 38.3711 156.508 39.1523 157.211 39.7773C157.927 40.4023 158.969 40.7148 160.336 40.7148C161.69 40.7148 162.895 40.4219 163.949 39.8359C165.004 39.237 165.779 38.4232 166.273 37.3945C166.651 36.6003 166.84 35.4284 166.84 33.8789V32.5898Z" fill="black"/>
</svg>
